<svg width="33" height="22" viewBox="0 0 33 22" fill="none" xmlns="http://www.w3.org/2000/svg">
<path d="M32.6019 10.0547L22.973 0.382296C22.714 0.13372 22.3679 -0.00347923 22.0091 6.7075e-05C21.6502 0.00361338 21.3069 0.147623 21.0528 0.40127C20.7987 0.654917 20.6539 0.998045 20.6494 1.3572C20.6449 1.71636 20.7811 2.06301 21.0288 2.32295L28.2658 9.59138H1.45735C1.27027 9.57991 1.08283 9.60688 0.906566 9.67063C0.730298 9.73438 0.568935 9.83357 0.432412 9.96208C0.295889 10.0906 0.187096 10.2457 0.11273 10.4179C0.0383639 10.5901 0 10.7757 0 10.9632C0 11.1508 0.0383639 11.3364 0.11273 11.5086C0.187096 11.6807 0.295889 11.8359 0.432412 11.9644C0.568935 12.0929 0.730298 12.1921 0.906566 12.2558C1.08283 12.3196 1.27027 12.3465 1.45735 12.3351H28.3738L21.0339 19.5984C20.8943 19.7226 20.7814 19.874 20.7023 20.0434C20.6231 20.2128 20.5794 20.3965 20.5736 20.5834C20.5679 20.7703 20.6003 20.9564 20.6689 21.1303C20.7375 21.3042 20.8409 21.4623 20.9726 21.5949C21.1044 21.7274 21.2618 21.8317 21.4352 21.9013C21.6086 21.9709 21.7944 22.0043 21.9812 21.9996C22.168 21.9948 22.3518 21.952 22.5215 21.8737C22.6911 21.7954 22.843 21.6832 22.9679 21.5442L32.5967 12.0005C32.7246 11.8728 32.826 11.7212 32.8952 11.5542C32.9644 11.3873 33 11.2083 33 11.0276C33 10.8468 32.9644 10.6679 32.8952 10.5009C32.826 10.334 32.7246 10.1823 32.5967 10.0547H32.6019Z" fill="white"/>
</svg>
