<svg width="177" height="35" viewBox="0 0 177 35" fill="none" xmlns="http://www.w3.org/2000/svg">
<path fill-rule="evenodd" clip-rule="evenodd" d="M17.8982 20.5577L26.9047 34.3137H22.7868L0.322266 0H16.9435C23.013 0 27.9514 4.62091 27.9514 10.2979C27.9514 15.6776 23.5229 20.104 17.8982 20.5577ZM6.68701 3.43137L15.6782 17.1607V17.1645H16.9435C21.1112 17.1645 24.5006 14.0839 24.5006 10.2979C24.5006 6.51198 21.1112 3.43137 16.9435 3.43137H6.68701Z" fill="#352F2D"/>
<path fill-rule="evenodd" clip-rule="evenodd" d="M56.207 34.3137V15.2505H67.3952V17.5991H58.7951V22.6699H65.2672V25.0146H58.7951V31.9079H67.3952V34.2527L56.207 34.3137Z" fill="#352F2D"/>
<path fill-rule="evenodd" clip-rule="evenodd" d="M83.5127 34.3137V25.2205H74.9318V34.3137H72.3438V15.2505H74.9318V22.8681H83.5127V15.2505H86.1008V34.3137H83.5127Z" fill="#352F2D"/>
<path fill-rule="evenodd" clip-rule="evenodd" d="M106.434 34.3137H103.846L102.144 30.3218H93.6433L91.8604 34.3137H89.3184L97.6807 15.2505H98.3824L106.434 34.3137ZM97.9913 20.5501L94.6594 28.0495H101.174L97.9913 20.5501Z" fill="#352F2D"/>
<path fill-rule="evenodd" clip-rule="evenodd" d="M140.581 34.3137H137.993L136.29 30.3218H127.79L126.007 34.3137H123.465L131.827 15.2505H132.529L140.581 34.3137ZM132.138 20.5501L128.806 28.0495H135.32L132.138 20.5501Z" fill="#352F2D"/>
<path fill-rule="evenodd" clip-rule="evenodd" d="M114.916 34.3136C113.248 34.3136 111.857 33.8447 110.779 32.9182C109.752 32.0222 109.085 30.7565 108.801 29.1475L111.427 28.6023C111.573 29.6317 111.814 30.3409 112.163 30.7679C112.815 31.6219 113.781 32.0604 115.035 32.0604C116.024 32.0604 116.86 31.7439 117.516 31.1148C118.172 30.4896 118.501 29.6889 118.501 28.7319C118.501 28.3469 118.444 27.9885 118.329 27.6682C118.214 27.3441 118.03 27.0391 117.788 26.7646C117.554 26.4977 117.24 26.2461 116.86 26.0097C116.492 25.781 116.047 25.5636 115.541 25.3578L113.617 24.6029C110.956 23.5429 109.66 22.0446 109.66 20.0239C109.66 18.6818 110.212 17.5419 111.305 16.6383C112.405 15.7194 113.793 15.2543 115.434 15.2543C117.577 15.2543 119.287 16.2265 120.522 18.1481L118.444 19.3071C118.007 18.6208 117.589 18.1786 117.175 17.9498C116.722 17.6753 116.124 17.5342 115.407 17.5342C114.525 17.5342 113.781 17.7744 113.195 18.251C112.6 18.7238 112.298 19.33 112.298 20.0506C112.298 21.0495 113.068 21.8539 114.59 22.4411L116.577 23.2074C118.152 23.8098 119.314 24.5457 120.035 25.3997C120.748 26.2461 121.112 27.3022 121.112 28.5375C121.112 30.1998 120.518 31.5914 119.345 32.6704C118.16 33.7608 116.672 34.3136 114.916 34.3136Z" fill="#352F2D"/>
<rect x="144.146" y="15.2505" width="2.58807" height="19.0594" fill="#352F2D"/>
<path fill-rule="evenodd" clip-rule="evenodd" d="M154.13 15.2505H157.55L150.541 24.7668L157.661 34.3137H154.183L147.316 24.7973L154.13 15.2505Z" fill="#352F2D"/>
<path fill-rule="evenodd" clip-rule="evenodd" d="M168.889 34.3137C166.819 34.3137 165.051 33.5893 163.64 32.1557C162.379 30.8747 161.738 29.2162 161.738 27.2298V15.2505H164.326V26.4215C164.326 28.1296 164.622 29.403 165.201 30.2075C166.071 31.3779 167.313 31.9689 168.889 31.9689C170.473 31.9689 171.719 31.3779 172.589 30.2075C173.172 29.4259 173.467 28.1524 173.467 26.4177V15.2505H176.055V27.226C176.055 29.2124 175.415 30.8709 174.153 32.1557C172.731 33.5855 170.959 34.3137 168.889 34.3137Z" fill="#352F2D"/>
<path fill-rule="evenodd" clip-rule="evenodd" d="M48.9368 34.3136L43.2277 26.3605L43.2201 24.1835C43.2392 24.1568 43.2661 24.153 43.3351 24.153L43.5652 24.1568C46.5021 24.1568 47.9936 23.0321 47.9936 20.8169C47.9936 18.7352 46.5443 17.6791 43.6802 17.6791H41.4487L41.4909 24.1987V34.2755L38.8644 34.3136L38.8223 15.2924L43.1242 15.2543C45.697 15.2543 47.5757 15.727 48.7068 16.6611C49.9491 17.6944 50.5779 19.0822 50.5779 20.7788C50.5779 22.1056 50.183 23.2646 49.4046 24.2178C48.6263 25.1709 47.5834 25.7886 46.3066 26.0555L45.9922 26.1203L52.1691 34.3136H48.9368Z" fill="#352F2D"/>
<path fill-rule="evenodd" clip-rule="evenodd" d="M44.2279 6.21846C43.9978 6.21846 43.9595 6.18415 43.9595 5.93633H43.9556V4.12151H45.9341V3.24842H43.0278V2.02838H45.3359V1.17053H43.0278V0.358442C43.1696 0.335566 43.231 0.293627 43.2386 0.209749L42.1152 0.156372V1.17053H41.1337C41.2027 0.972276 41.2602 0.770207 41.3062 0.598638C41.4174 0.598638 41.4788 0.560511 41.5018 0.491884L40.4435 0.263126C40.2863 1.02947 39.9259 2.04363 39.4313 2.66127C39.6499 2.74515 40.0218 2.92435 40.225 3.05779C40.4435 2.77184 40.6391 2.40964 40.8039 2.02838H42.1152V3.24842H39.2166V4.1177H43.0508V5.93633C43.0508 6.78655 43.2463 7.06106 44.0937 7.06106H44.9679C45.6734 7.06106 45.9111 6.74079 46.0031 5.54744C45.7654 5.48644 45.3666 5.33774 45.1864 5.18905C45.1557 6.0774 45.1136 6.21846 44.8873 6.21846H44.2279ZM41.935 4.44559C42.0539 4.43034 42.1152 4.3884 42.1382 4.31977L41.0263 4.19395C40.9075 5.15474 40.6659 5.95158 39.1016 6.39766C39.3048 6.58448 39.5425 6.95049 39.6499 7.17925C41.4021 6.56923 41.7088 5.55506 41.935 4.44559Z" fill="#352F2D"/>
<path fill-rule="evenodd" clip-rule="evenodd" d="M50.1291 5.93246V3.00817C50.0102 3.14161 49.8799 3.27124 49.7533 3.38181C49.6191 3.20261 49.3277 2.8671 49.1475 2.71078C49.8147 2.15795 50.4128 1.16285 50.7426 0.16394L51.7778 0.476577C51.7471 0.537579 51.6743 0.571892 51.5669 0.560455C51.4711 0.823527 51.356 1.07516 51.2372 1.32679H52.0462C52.2034 0.976032 52.3452 0.552829 52.4373 0.224943L53.4993 0.484202C53.4763 0.545204 53.4112 0.579518 53.2961 0.579518C53.2003 0.804463 53.0699 1.07135 52.928 1.32298H54.4195V2.07788H52.8399V2.53159H54.1358V3.25599H52.8399V3.71732H54.1051V4.43791H52.8399V4.91448H54.5192V5.66557H50.9994V5.93246H50.1291ZM49.5386 1.53649C49.2971 1.1781 48.7718 0.678646 48.3462 0.343134L47.6599 0.850215C48.0855 1.21623 48.5877 1.73475 48.7986 2.09313L49.5386 1.53649ZM49.3354 5.47494V3.06917H47.6292V3.8927H48.4766V5.53976C48.1698 5.7952 47.8324 6.03159 47.541 6.22603L47.9819 7.16394C48.0548 7.12581 48.0855 7.09531 48.0778 7.00762C48.35 6.78649 48.6644 6.50054 48.9635 6.21078C49.646 7.06862 50.5087 7.06862 52.2379 7.06862C52.9971 7.06862 53.8214 7.05337 54.3889 7.02287C54.431 6.76743 54.5691 6.35947 54.6726 6.14978C53.9518 6.21078 52.882 6.23366 51.9887 6.23366C50.6084 6.23366 49.784 6.23366 49.3354 5.47494ZM51.9887 2.07788V2.53159H50.9995V2.07788H51.9887ZM51.9887 3.71732V3.25599H50.9995V3.71732H51.9887ZM51.9887 4.44172V4.9183H50.9995V4.44172H51.9887Z" fill="#352F2D"/>
<path fill-rule="evenodd" clip-rule="evenodd" d="M63.1767 6.08877H61.4168H61.4091V4.69334H62.705V3.87363H61.4091V2.60021H62.9773V1.75761H61.4091V0.358377C61.5433 0.327876 61.597 0.293562 61.6046 0.209684L60.5119 0.148682V1.76143H59.9061C59.9713 1.44117 60.025 1.11328 60.0633 0.800642C60.1706 0.800642 60.2282 0.766329 60.2435 0.705326L59.2236 0.495632C59.1623 1.0294 59.0779 1.58986 58.959 2.08169C58.8095 1.83768 58.5986 1.54029 58.4184 1.3001L58.035 1.52886V0.350751C58.1615 0.327876 58.2229 0.282124 58.2306 0.209684L57.1531 0.148682V7.17918H58.0388V1.97112C58.219 2.25326 58.3993 2.55064 58.4874 2.76034L58.8479 2.52014C58.7673 2.77178 58.6753 2.99672 58.5795 3.17591C58.798 3.27123 59.1431 3.45805 59.3156 3.59149C59.4652 3.31698 59.5955 2.97385 59.7067 2.60021H60.5157V3.87744H59.1278V4.69716H60.5157V6.08877H58.6063V6.94661H63.1767V6.08877ZM56.4055 1.65467C56.3901 2.27232 56.2866 3.01197 56.0527 3.43517L56.7276 3.78975C56.9998 3.27123 57.1186 2.44389 57.111 1.74236L56.4055 1.65467Z" fill="#352F2D"/>
<path fill-rule="evenodd" clip-rule="evenodd" d="M64.6602 1.0675C64.894 1.0675 65.2391 1.05988 65.4462 1.04463C66.3089 0.983624 69.5449 0.781555 70.8102 0.724365L70.8255 1.7309C70.1584 1.70803 69.7903 1.76903 69.1998 2.1846C68.3755 2.72981 67.3556 3.75541 67.3556 4.60563C67.3556 5.45585 68.1148 5.94768 69.752 6.11925L69.288 7.04953C67.16 6.79789 66.3204 5.90193 66.3204 4.61325C66.3204 3.70585 67.16 2.52774 68.2835 1.74615C67.9095 1.77996 67.4046 1.82182 66.89 1.86449C66.1279 1.92769 65.3444 1.99267 64.9324 2.03591C64.917 2.09691 64.8212 2.14648 64.7522 2.16173L64.6602 1.0675ZM69.6638 2.84038C69.9858 3.09964 70.3769 3.53428 70.5801 3.84691L70.1354 4.19386C69.9705 3.9041 69.5219 3.40465 69.2497 3.17208L69.6638 2.84038ZM71.4697 3.17589C71.2741 2.848 70.8907 2.44386 70.5533 2.17698L70.143 2.50487C70.4459 2.75269 70.8639 3.24452 71.0364 3.51903L71.4697 3.17589Z" fill="#352F2D"/>
<path fill-rule="evenodd" clip-rule="evenodd" d="M73.1959 4.89539C73.7212 5.31859 74.4535 6.06587 74.8139 6.48144L74.0432 7.18297C73.7058 6.74451 72.9505 5.9248 72.498 5.50541L73.1959 4.89539Z" fill="#352F2D"/>
<path fill-rule="evenodd" clip-rule="evenodd" d="M82.2507 0.7244C82.404 0.701525 82.4615 0.65196 82.4692 0.575708L81.2729 0.50708V3.05011C81.2729 4.2854 80.8857 5.52451 78.8996 6.2756C79.1258 6.43192 79.4785 6.78268 79.6204 6.9695C81.7254 6.10403 82.2507 4.63617 82.2507 3.05773V0.7244ZM78.0254 0.895969V4.55991V4.56372H78.9839V1.11329C79.1258 1.09041 79.1948 1.04085 79.2025 0.956971L78.0254 0.895969Z" fill="#352F2D"/>
<path fill-rule="evenodd" clip-rule="evenodd" d="M91.3967 6.04303C91.0976 4.71624 90.2733 2.69173 89.4949 1.19336L88.5326 1.567C89.2687 2.93955 90.0624 5.13563 90.3845 6.44717L91.3967 6.04303ZM86.9912 1.71188C87.1216 1.69663 87.1714 1.65469 87.2021 1.57081L85.9522 1.28486C85.7144 3.12637 85.2352 4.86874 84.3418 6.04685C84.6255 6.14979 85.0089 6.32898 85.2773 6.50055C86.1669 5.23475 86.6845 3.41231 86.9912 1.71188Z" fill="#352F2D"/>
<path fill-rule="evenodd" clip-rule="evenodd" d="M99.9 1.01416C99.7198 0.724401 99.3441 0.282135 99.045 0L98.6347 0.320261C98.8878 0.583333 99.2789 1.06754 99.4591 1.34967L99.9 1.01416ZM98.0021 0.358388C98.3012 0.632898 98.6616 1.09423 98.8495 1.39161L98.4009 1.7195C98.236 1.43736 97.8449 0.922658 97.5842 0.667211L98.0021 0.358388ZM97.2544 5.77614C97.6455 5.76852 98.4737 5.69989 98.9108 5.62745C98.9186 5.78246 98.9244 5.94337 98.9303 6.10519L98.9303 6.10524V6.10525C98.9359 6.26183 98.9416 6.41925 98.9491 6.57298C98.5389 6.63399 97.7184 6.6683 97.3388 6.6683H95.6518C94.3405 6.6683 93.75 6.13072 93.75 4.94118V0.625272L94.9424 0.678649C94.9271 0.770153 94.8734 0.834967 94.7085 0.850218V3.06155C95.6671 2.74891 97.0896 2.18464 97.9676 1.69281L98.6041 2.58115C98.5734 2.59641 98.5274 2.60403 98.4852 2.60403C98.4425 2.60403 98.4064 2.59746 98.3677 2.59042L98.3587 2.58878C97.6455 2.93954 95.9853 3.58769 94.7085 3.94608V4.95261C94.7085 5.57026 94.9846 5.77996 95.6748 5.77996H97.2544V5.77614Z" fill="#352F2D"/>
<path fill-rule="evenodd" clip-rule="evenodd" d="M105.766 0.7244C105.92 0.701525 105.977 0.65196 105.985 0.575708L104.789 0.50708V3.05011C104.789 4.2854 104.401 5.52451 102.415 6.2756C102.641 6.43192 102.994 6.78268 103.136 6.9695C105.241 6.10403 105.766 4.63617 105.766 3.05773V0.7244ZM101.541 0.895969V4.55991V4.56372H102.5V1.11329C102.641 1.09041 102.71 1.04085 102.718 0.956971L101.541 0.895969Z" fill="#352F2D"/>
<path fill-rule="evenodd" clip-rule="evenodd" d="M109.82 0.743468C109.804 0.827346 109.735 0.87691 109.586 0.884536C109.302 2.20371 109.187 3.53432 109.187 4.1634C109.187 4.58661 109.195 4.96024 109.241 5.21569C109.284 5.10949 109.376 4.90403 109.471 4.69411C109.57 4.47448 109.671 4.24995 109.72 4.12909L110.161 4.81536C110.069 5.00763 109.976 5.1844 109.889 5.34891L109.889 5.34892C109.74 5.63131 109.61 5.87757 109.54 6.10403C109.502 6.22985 109.479 6.34804 109.479 6.46242C109.479 6.55011 109.494 6.64162 109.517 6.72168L108.577 6.86275C108.336 6.14597 108.232 5.19281 108.232 4.20153C108.232 3.18737 108.39 1.80338 108.585 0.571899L109.82 0.743468ZM114.313 6.30992C114.037 6.32517 113.734 6.33279 113.451 6.33279C112.971 6.33279 112.515 6.30992 112.178 6.26417C111.139 6.1231 110.717 5.57027 110.717 4.93737C110.717 4.39979 110.966 3.93846 111.361 3.45425L112.258 3.75926C111.921 4.08715 111.702 4.43029 111.702 4.80393C111.702 5.36438 112.377 5.42157 113.267 5.42157C113.627 5.42157 114.014 5.40632 114.34 5.3682L114.313 6.30992ZM114.06 1.21623C113.152 1.37255 111.745 1.46787 110.89 1.49074L110.924 2.39053C111.798 2.37909 113.248 2.27996 114.145 2.13889L114.06 1.21623Z" fill="#352F2D"/>
<path fill-rule="evenodd" clip-rule="evenodd" d="M121.391 4.09101L122.027 4.47609C122.004 4.52947 121.958 4.56759 121.893 4.58666C121.556 5.13949 121.1 5.57794 120.544 5.93633C121.268 6.16127 122.139 6.27947 123.135 6.33284C122.948 6.54254 122.725 6.92761 122.61 7.17544C121.379 7.08012 120.371 6.85517 119.539 6.45866C118.634 6.83992 117.561 7.06106 116.43 7.1945C116.36 6.96955 116.161 6.58448 116.004 6.39003C116.97 6.31759 117.879 6.17271 118.665 5.9287C118.4 5.72663 118.17 5.5055 117.952 5.25005C117.614 5.45975 117.231 5.65419 116.79 5.82957C116.679 5.61988 116.414 5.29962 116.23 5.16618C117.085 4.88404 117.714 4.5104 118.155 4.10245C118.021 3.91563 117.714 3.6335 117.511 3.50005C118.439 2.95485 118.561 2.20376 118.569 1.62424H116.222V0.80452H119.09V0.156372L120.214 0.217374C120.206 0.293627 120.152 0.335566 120.018 0.358442V0.80452H122.909V1.62424H120.969V2.98154C120.969 3.65256 120.758 3.83175 119.643 3.83175C119.604 3.86225 119.547 3.88513 119.478 3.88513C119.435 3.94373 119.39 3.99675 119.343 4.05199L119.343 4.052C119.323 4.07582 119.303 4.10005 119.282 4.12533H121.238L121.391 4.09101ZM118.147 2.15419C118.124 2.20757 118.055 2.24188 117.959 2.23807C117.706 2.69178 117.212 3.29417 116.694 3.66018C116.529 3.49624 116.238 3.26367 116.073 3.13785C116.545 2.84047 116.993 2.32576 117.189 1.87968L118.147 2.15419ZM119.593 5.56269C119.213 5.36443 118.887 5.11661 118.634 4.82685H120.62C120.34 5.11661 119.999 5.36062 119.593 5.56269ZM120.091 1.62424H119.405C119.405 2.23426 119.32 2.97391 118.776 3.59918L119.57 3.74025C119.524 3.52293 119.428 3.24079 119.336 3.04635C119.597 3.05398 119.892 3.05398 119.98 3.05398C120.068 3.05398 120.091 3.0311 120.091 2.95866V1.62424ZM121.18 2.24188C121.609 2.68796 122.116 3.30942 122.334 3.70975L123.086 3.25223C122.836 2.85191 122.311 2.26476 121.878 1.84537L121.18 2.24188Z" fill="#352F2D"/>
<path fill-rule="evenodd" clip-rule="evenodd" d="M131.524 6.11164V5.29955V5.29574H128.541V4.85729H130.745V2.90522H128.537V2.5392H129.902V1.46023H131.401V0.701514H129.902V0.350751C130.04 0.32025 130.097 0.278311 130.105 0.202059L129.005 0.148682V0.701514H127.149V0.350751C127.283 0.32025 127.337 0.278311 127.344 0.202059L126.294 0.148682V0.701514H124.795V1.46023H126.294V2.5392H127.605V2.90522H125.492V4.8611H127.605V5.29955H124.676V6.11164H127.605V7.183H128.541V6.11164H131.524ZM127.605 4.17101H126.363V3.59912H127.605V4.17101ZM127.149 1.46023V1.88343H129.005V1.46023H127.149ZM128.541 3.59912H129.814V4.17483H128.541V3.59912Z" fill="#352F2D"/>
<path fill-rule="evenodd" clip-rule="evenodd" d="M139.546 3.68686C139.523 3.69449 139.508 3.70211 139.485 3.70211C139.447 3.70211 139.412 3.68686 139.382 3.66399C138.818 3.82793 138.078 4.06431 137.522 4.27401C137.537 4.4227 137.537 4.59427 137.537 4.77346C137.537 4.95266 137.537 5.1471 137.522 5.36061L136.579 5.42542C136.602 5.15091 136.617 4.8459 136.609 4.62858C136.027 4.91834 135.597 5.29961 135.597 5.58174C135.597 5.90963 136.008 6.04307 136.855 6.04307C137.514 6.04307 138.243 6.0202 138.714 5.95919L138.73 6.82466C138.339 6.87041 137.695 6.87804 136.851 6.87804C135.406 6.87804 134.685 6.55778 134.685 5.63512C134.685 5.04035 135.463 4.3617 136.521 3.82412C136.498 3.6068 136.387 3.40854 136.161 3.40854C135.666 3.40854 135.141 3.66017 134.528 4.35407C134.347 4.56377 134.071 4.85353 133.749 5.16616L133.082 4.52564C133.396 4.25876 133.765 3.9385 133.995 3.66017C134.324 3.27891 134.692 2.62314 134.834 2.10081L134.551 2.10843C134.386 2.10843 133.577 2.11606 133.389 2.10843V1.27346C133.807 1.29634 134.347 1.29634 134.677 1.29634L135.076 1.28871C135.145 0.983703 135.187 0.686317 135.233 0.305054L136.379 0.41562C136.364 0.48806 136.299 0.541437 136.192 0.556688C136.153 0.796884 136.096 1.01802 136.034 1.25059C136.625 1.23534 137.511 1.10952 138.312 0.842635L138.461 1.72335C137.741 1.95211 136.709 2.04362 135.785 2.08937C135.651 2.48588 135.521 2.80614 135.417 2.96246H135.425C135.693 2.75277 136.084 2.59645 136.452 2.59645C136.886 2.59645 137.269 2.90146 137.38 3.46954C137.959 3.22553 138.661 2.97009 139.201 2.75277L139.546 3.68686Z" fill="#352F2D"/>
<path fill-rule="evenodd" clip-rule="evenodd" d="M141.931 7.18295C142.51 7.18295 142.982 6.714 142.982 6.13829C142.982 5.58165 142.526 5.09744 141.931 5.09363C141.352 5.09363 140.881 5.56258 140.881 6.13829C140.881 6.714 141.356 7.18295 141.931 7.18295ZM141.931 5.42914C142.33 5.42914 142.645 5.74178 142.645 6.13829C142.645 6.51193 142.346 6.83982 141.931 6.83982C141.54 6.83982 141.226 6.52718 141.226 6.13829C141.226 5.74178 141.544 5.42914 141.931 5.42914Z" fill="#352F2D"/>
<path fill-rule="evenodd" clip-rule="evenodd" d="M9.60712 34.3137H0.685547V20.5883L9.60712 34.3137Z" fill="#007CBE"/>
</svg>
