<svg width="274" height="101" viewBox="0 0 274 101" fill="none" xmlns="http://www.w3.org/2000/svg">
<path d="M18 9H4V63H18" stroke="#253336" stroke-width="2"/>
<path d="M26.2452 53V31.68H28.2052L28.4852 35.64H28.5652C30.0052 33 32.1252 31.16 34.6052 31.16C35.4452 31.16 36.0452 31.24 36.7652 31.6L36.2852 33.68C35.5652 33.4 35.1652 33.32 34.2852 33.32C32.4452 33.32 30.1652 34.72 28.6052 38.72V53H26.2452ZM48.3514 53.56C42.8314 53.56 38.3914 49.4 38.3914 42.4C38.3914 35.44 42.9514 31.16 47.7514 31.16C52.9114 31.16 56.0314 34.84 56.0314 41.08C56.0314 41.64 55.9914 42.2 55.9114 42.76H40.7914C40.8714 47.92 43.9514 51.56 48.5914 51.56C50.8714 51.56 52.6314 50.84 54.2314 49.72L55.1514 51.44C53.4314 52.52 51.3914 53.56 48.3514 53.56ZM40.7514 40.92H53.8714C53.8714 35.76 51.5114 33.12 47.7914 33.12C44.3114 33.12 41.2314 36 40.7514 40.92Z" fill="#253336"/>
<path d="M62 63L76 63L76 9L62 9" stroke="#253336" stroke-width="2"/>
<path d="M0.624 89.288H15.392V90.408H0.624V89.288ZM1.216 80.536H14.8V81.656H1.216V80.536ZM3.312 86.248H12.72V87.304H3.312V86.248ZM12.256 83.224H13.44V92.808C13.44 93.544 13.28 93.912 12.736 94.104C12.224 94.296 11.328 94.312 9.936 94.312C9.872 93.992 9.68 93.464 9.504 93.16C10.56 93.192 11.584 93.176 11.872 93.16C12.16 93.16 12.256 93.08 12.256 92.808V83.224ZM2.528 83.224H12.752V84.328H3.712V94.312H2.528V83.224ZM7.328 80.888H8.528V89.704H7.328V80.888ZM27.424 81.432C27.76 83.368 28.464 86.088 30.816 88.216L29.984 89.336C28.208 87.448 27.12 85.064 26.176 81.784L27.424 81.432ZM17.424 82.28C17.664 82.296 18 82.296 18.288 82.28C19.712 82.216 22.4 81.848 23.344 81.48L23.712 82.616C23.504 82.68 23.104 82.792 22.864 82.888C21.856 83.64 19.408 86.44 19.408 89.736C19.408 91.992 20.896 92.744 22.544 92.744C26.352 92.744 27.648 88.648 26.432 82.376L27.6 84.536C28.432 89.112 27.52 94.056 22.512 94.056C19.984 94.056 18.16 92.648 18.16 90.008C18.16 87.016 19.728 84.728 21.136 83.128C20.32 83.256 19.008 83.416 18.432 83.496C18.128 83.528 17.856 83.576 17.52 83.624L17.424 82.28ZM28.832 80.52C29.152 81.128 29.648 82.12 29.92 82.776L29.088 83.08C28.8 82.36 28.384 81.416 28.032 80.808L28.832 80.52ZM30.464 79.896C30.8 80.488 31.296 81.464 31.6 82.136L30.752 82.456C30.464 81.736 30.048 80.808 29.68 80.2L30.464 79.896ZM40 85.224C40.928 85.224 41.696 85.992 41.696 86.92C41.696 87.864 40.928 88.632 40 88.632C39.056 88.632 38.288 87.864 38.288 86.92C38.288 85.992 39.056 85.224 40 85.224ZM51.04 88.392H62.896V89.464H51.04V88.392ZM57.504 88.984C58.304 91.448 60.224 92.776 63.456 93.224C63.184 93.48 62.864 93.976 62.72 94.296C59.296 93.672 57.36 92.12 56.4 89.192L57.504 88.984ZM56.176 86.344H57.392C57.12 90.632 56.32 93.16 51.248 94.328C51.136 94.04 50.816 93.576 50.592 93.352C55.328 92.344 55.936 90.168 56.176 86.344ZM50.384 82.728H51.584V86.008C51.584 88.376 51.28 91.736 49.488 94.024C49.28 93.816 48.752 93.48 48.448 93.352C50.192 91.208 50.384 88.168 50.384 85.976V82.728ZM50.976 82.728H61.952V86.504H50.976V85.544H60.768V83.672H50.976V82.728ZM49.28 80.456H62.8V81.56H49.28V80.456ZM74.032 80.328C74 80.52 73.952 81.144 73.952 81.336C73.904 82.376 73.936 85.464 73.952 86.744L72.736 86.12C72.736 85.416 72.72 82.232 72.672 81.352C72.64 80.92 72.592 80.472 72.56 80.328H74.032ZM65.52 82.568C67.696 82.536 71.696 82.392 74.16 82.392C76.112 82.392 78.096 82.392 78.848 82.408L78.832 83.592C77.936 83.544 76.496 83.512 74.144 83.512C71.392 83.512 67.968 83.624 65.552 83.8L65.52 82.568ZM73.92 87.208C73.92 89.352 72.928 90.424 71.472 90.424C70.128 90.424 68.832 89.48 68.832 87.736C68.832 86.152 70.144 84.968 71.664 84.968C73.52 84.968 74.464 86.344 74.464 88.184C74.464 90.36 73.408 92.76 69.696 93.864L68.624 92.824C71.536 92.136 73.232 90.712 73.232 88.072C73.232 86.632 72.528 86.024 71.664 86.024C70.816 86.024 70.032 86.68 70.032 87.72C70.032 88.728 70.784 89.304 71.664 89.304C72.656 89.304 73.296 88.472 73.04 86.76L73.92 87.208Z" fill="#253336"/>
<path d="M97.9369 48.2V39.36H89.7769V37.48H97.9369V28.56H100.017V37.48H108.177V39.36H100.017V48.2H97.9369Z" fill="#007CBE"/>
<path d="M132 9H118V63H132" stroke="#253336" stroke-width="2"/>
<path d="M140.085 53V21.24H142.445V30.32L142.365 34.96C144.525 32.8 146.725 31.16 149.685 31.16C154.085 31.16 156.165 33.88 156.165 39.36V53H153.805V39.68C153.805 35.28 152.445 33.24 149.125 33.24C146.685 33.24 144.925 34.52 142.445 37.04V53H140.085ZM168.321 53.56C164.921 53.56 162.121 51.6 162.121 47.64C162.121 42.92 166.321 40.68 175.721 39.6C175.801 36.44 174.921 33.16 170.881 33.16C168.041 33.16 165.641 34.52 164.121 35.64L163.121 33.92C164.721 32.8 167.681 31.16 171.161 31.16C176.241 31.16 178.081 34.76 178.081 39.48V53H176.121L175.881 50.32H175.761C173.641 52.04 171.081 53.56 168.321 53.56ZM168.801 51.56C171.161 51.56 173.241 50.44 175.721 48.28V41.36C167.321 42.28 164.481 44.28 164.481 47.52C164.481 50.44 166.441 51.56 168.801 51.56ZM194.036 53.56C192.036 53.56 189.716 52.52 187.756 50.84H187.636L187.396 53H185.476V21.24H187.836V30.32L187.716 34.44C189.836 32.64 192.356 31.16 194.876 31.16C200.556 31.16 203.436 35.44 203.436 42.04C203.436 49.32 199.076 53.56 194.036 53.56ZM193.876 51.52C197.996 51.52 200.996 47.72 200.996 42.04C200.996 36.92 199.196 33.2 194.476 33.2C192.436 33.2 190.196 34.4 187.836 36.56V48.92C190.036 50.8 192.316 51.52 193.876 51.52ZM209.577 53V31.68H211.937V53H209.577ZM210.777 26.68C209.697 26.68 208.937 25.96 208.937 24.72C208.937 23.64 209.697 22.88 210.777 22.88C211.857 22.88 212.617 23.64 212.617 24.72C212.617 25.96 211.857 26.68 210.777 26.68ZM222.691 53.56C220.771 53.56 219.851 52.32 219.851 49.84V21.24H222.211V50.08C222.211 51.08 222.571 51.52 223.131 51.52C223.331 51.52 223.491 51.52 223.931 51.44L224.291 53.32C223.851 53.44 223.451 53.56 222.691 53.56ZM230.476 53V31.68H232.836V53H230.476ZM231.676 26.68C230.596 26.68 229.836 25.96 229.836 24.72C229.836 23.64 230.596 22.88 231.676 22.88C232.756 22.88 233.516 23.64 233.516 24.72C233.516 25.96 232.756 26.68 231.676 26.68ZM246.029 53.56C242.869 53.56 240.109 52.24 238.149 50.6L239.429 48.92C241.229 50.44 243.189 51.6 246.109 51.6C249.349 51.6 250.989 49.76 250.989 47.6C250.989 45.04 248.309 43.92 245.829 43C242.709 41.88 239.349 40.56 239.349 36.88C239.349 33.76 241.829 31.16 246.309 31.16C248.669 31.16 250.989 32.12 252.509 33.44L251.309 35C249.869 33.96 248.389 33.08 246.309 33.08C243.109 33.08 241.629 34.88 241.629 36.8C241.629 39.12 243.989 40 246.469 40.96C249.749 42.2 253.309 43.32 253.309 47.44C253.309 50.76 250.749 53.56 246.029 53.56Z" fill="#253336"/>
<path d="M259 63L273 63L273 9L259 9" stroke="#253336" stroke-width="2"/>
<path d="M127.42 85.88V91.544H126.268V87H124.236V85.88H127.42ZM127.42 91.064C128.172 92.248 129.58 92.792 131.484 92.856C133.26 92.936 136.956 92.888 138.892 92.76C138.748 93.032 138.556 93.592 138.508 93.944C136.7 94.024 133.276 94.056 131.484 93.976C129.372 93.896 127.916 93.336 126.924 92.072C126.22 92.76 125.484 93.448 124.684 94.152L124.06 92.984C124.764 92.472 125.628 91.752 126.38 91.064H127.42ZM124.38 80.632L125.292 79.976C126.284 80.696 127.404 81.8 127.9 82.584L126.908 83.336C126.46 82.536 125.356 81.416 124.38 80.632ZM128.332 80.92H138.636V81.896H128.332V80.92ZM130.572 85.592H136.3V86.392H130.572V85.592ZM132.796 79.56H133.948V81.512H132.796V79.56ZM132.956 84.408H133.884V87.8H132.956V84.408ZM128.908 83.528H137.388V84.488H130.012V91.912H128.908V83.528ZM131.292 87.544H132.188V91.08H131.292V87.544ZM131.772 87.544H135.612V90.456H131.772V89.704H134.716V88.312H131.772V87.544ZM136.956 83.528H138.06V90.632C138.06 91.224 137.964 91.512 137.548 91.704C137.116 91.88 136.46 91.896 135.516 91.896C135.452 91.592 135.292 91.16 135.148 90.856C135.868 90.888 136.492 90.888 136.7 90.872C136.892 90.856 136.956 90.808 136.956 90.616V83.528ZM135.436 81.688L136.572 81.992C136.22 82.648 135.884 83.304 135.58 83.768L134.62 83.496C134.892 82.984 135.26 82.2 135.436 81.688ZM130.332 82.024L131.34 81.768C131.676 82.28 131.996 82.984 132.092 83.464L131.052 83.752C130.956 83.272 130.652 82.568 130.332 82.024ZM144.94 80.536C144.86 81.064 144.812 81.624 144.78 82.152C144.716 83.96 144.588 87.752 144.588 90.136C144.588 91.896 145.692 92.504 147.212 92.504C150.14 92.504 151.804 90.872 152.956 89.208L153.852 90.296C152.764 91.816 150.684 93.816 147.18 93.816C144.876 93.816 143.292 92.872 143.292 90.248C143.292 87.88 143.452 83.832 143.452 82.152C143.452 81.56 143.404 81 143.308 80.536H144.94ZM162.572 80.424C162.476 80.776 162.364 81.384 162.3 81.688C162.06 82.84 161.724 84.648 161.276 86.248C160.7 88.52 159.628 91.832 158.78 93.576L157.388 93.112C158.348 91.448 159.468 88.2 160.076 85.944C160.46 84.472 160.876 82.456 160.988 81.624C161.052 81.176 161.084 80.632 161.052 80.296L162.572 80.424ZM159.036 83.096C160.796 83.096 163.148 82.808 165.132 82.312V83.56C163.148 84.008 160.732 84.28 159.004 84.28C158.3 84.28 157.74 84.264 157.148 84.216L157.116 82.968C157.868 83.064 158.444 83.096 159.036 83.096ZM164.092 85.288C164.924 85.208 165.996 85.16 167.02 85.16C167.948 85.16 168.924 85.192 169.788 85.288L169.756 86.504C168.924 86.408 167.996 86.312 167.052 86.312C166.06 86.312 165.068 86.376 164.092 86.488V85.288ZM164.412 89.176C164.284 89.704 164.188 90.2 164.188 90.616C164.188 91.368 164.62 92.104 166.892 92.104C167.948 92.104 169.036 91.992 170.028 91.8L169.98 93.08C169.116 93.208 168.044 93.304 166.876 93.304C164.364 93.304 162.988 92.536 162.988 90.952C162.988 90.344 163.084 89.736 163.228 89.064L164.412 89.176ZM179.5 85.224C180.428 85.224 181.196 85.992 181.196 86.92C181.196 87.864 180.428 88.632 179.5 88.632C178.556 88.632 177.788 87.864 177.788 86.92C177.788 85.992 178.556 85.224 179.5 85.224ZM195.548 84.248C195.98 83.976 196.428 83.64 196.668 83.448C195.964 82.872 194.476 82.072 193.244 81.576L193.98 80.648C195.212 81.16 196.972 82.04 197.932 82.744L198.236 83.56C197.852 83.88 196.956 84.6 196.348 85.016L195.548 84.248ZM192.46 91.896C193.276 92.136 194.044 92.264 195.052 92.264C195.788 92.264 196.668 91.96 196.668 90.92C196.668 89.848 195.516 88.408 194.62 87.432C194.268 87.048 193.788 86.6 193.34 86.216L194.284 85.4C194.668 85.8 195.084 86.232 195.452 86.632C196.956 88.216 198.012 89.624 198.012 91.064C198.012 93.032 196.412 93.464 195.26 93.464C194.236 93.464 193.356 93.352 192.636 93.224L192.46 91.896ZM201.692 92.488C201.244 90.968 200.124 88.68 199.02 87.432L200.076 86.856C201.18 88.136 202.38 90.44 202.876 91.848L201.692 92.488ZM193.004 89.384C192.076 90.344 190.476 91.688 188.924 92.616L188.156 91.56C189.484 90.84 191.34 89.416 192.252 88.424L193.004 89.384ZM211.868 81.672C211.772 81.32 211.628 80.84 211.468 80.408L212.844 80.248C212.988 81.176 213.404 82.552 213.772 83.592C214.268 84.968 215.084 86.456 215.772 87.384C215.98 87.704 216.22 87.976 216.46 88.232L215.82 89.144C215.052 88.952 213.1 88.776 211.948 88.696L212.044 87.64C212.94 87.72 214.124 87.816 214.7 87.88C214.028 86.856 213.148 85.272 212.62 83.816C212.268 82.904 212.044 82.168 211.868 81.672ZM206.012 82.92C208.684 83.224 211.212 83.24 213.036 83.048C214.3 82.904 215.884 82.616 217.132 82.184L217.276 83.448C216.14 83.768 214.62 84.024 213.452 84.168C211.42 84.408 208.876 84.424 206.044 84.184L206.012 82.92ZM208.492 88.008C208.012 88.792 207.724 89.48 207.724 90.232C207.724 91.768 209.116 92.424 211.5 92.456C213.116 92.456 214.508 92.296 215.612 92.056L215.564 93.336C214.556 93.512 213.212 93.688 211.42 93.672C208.38 93.656 206.46 92.568 206.46 90.392C206.46 89.496 206.78 88.664 207.244 87.72L208.492 88.008ZM227.948 91.864C230.652 91.464 233.084 90.216 233.068 87.464C233.068 86.232 232.092 84.6 229.964 84.6C227.916 84.6 226.076 85.736 224.524 87.352V85.928C226.444 84.12 228.476 83.448 230.156 83.448C232.38 83.448 234.348 85 234.348 87.48C234.364 90.712 232.012 92.392 228.524 93.064L227.948 91.864ZM224.332 84.152C223.82 84.216 222.076 84.44 220.892 84.616L220.748 83.288C221.1 83.304 221.404 83.304 221.804 83.272C222.652 83.224 224.636 82.984 225.388 82.744L225.852 83.288C225.58 83.704 225.148 84.392 224.876 84.84L224.396 87.032C223.66 88.168 222.172 90.328 221.164 91.72L220.364 90.632C221.356 89.384 223.516 86.44 224.14 85.384L224.204 84.568L224.332 84.152ZM224.172 81.496C224.172 81.128 224.188 80.712 224.108 80.312L225.628 80.36C225.404 81.4 224.908 85.976 224.908 88.792C224.908 90.248 224.908 91.224 224.972 92.648C224.988 92.92 225.036 93.32 225.052 93.624H223.676C223.692 93.4 223.724 92.936 223.724 92.68C223.724 91.128 223.74 90.328 223.756 88.568C223.788 87.16 224.172 82.088 224.172 81.496ZM240.94 80.536C240.86 81.064 240.812 81.624 240.78 82.152C240.716 83.96 240.588 87.752 240.588 90.136C240.588 91.896 241.692 92.504 243.212 92.504C246.14 92.504 247.804 90.872 248.956 89.208L249.852 90.296C248.764 91.816 246.684 93.816 243.18 93.816C240.876 93.816 239.292 92.872 239.292 90.248C239.292 87.88 239.452 83.832 239.452 82.152C239.452 81.56 239.404 81 239.308 80.536H240.94ZM255.068 81.848C254.988 82.216 254.94 82.984 254.924 83.4C254.908 84.392 254.924 85.864 255.036 87.176C255.308 89.848 256.076 91.624 257.228 91.624C258.044 91.624 258.796 89.976 259.212 88.376L260.22 89.512C259.244 92.216 258.284 93.144 257.196 93.144C255.676 93.144 254.236 91.64 253.788 87.496C253.644 86.12 253.612 84.168 253.612 83.24C253.612 82.872 253.612 82.184 253.516 81.816L255.068 81.848ZM263.388 82.28C264.828 84.136 265.98 87.544 266.22 90.248L264.924 90.76C264.652 87.88 263.676 84.584 262.156 82.712L263.388 82.28Z" fill="#253336"/>
</svg>
