<svg width="43" height="25" viewBox="0 0 43 25" fill="none" xmlns="http://www.w3.org/2000/svg">
<path d="M12.9177 4.64482C13.9463 4.47672 16.2038 4.24137 17.0045 4.64482C17.8051 5.04828 20.563 6.94226 21.8418 7.83882L23.5933 10.5285H27.3465L34.1022 15.4035C36.3541 17.1686 34.3524 20.1105 32.1838 19.1019L29.927 17.4931C30.9681 18.4898 31.5824 19.4926 31.0996 20.2786C30.4024 21.4136 28.3371 20.4285 26.4119 19.1336C27.3535 20.0301 27.9522 21.0078 27.3465 21.8756C26.1787 23.5485 22.9817 20.923 21.3414 19.6902C22.1199 20.5027 24.5108 21.2872 22.7593 23.2204C21.8016 24.2775 20.5075 23.0523 19.9236 22.6321L19.8931 22.6101C19.0172 21.9801 6.58376 13.037 6.91266 12.1255C7.17955 11.3858 11.0272 6.83019 12.9177 4.64482Z" fill="#007CBE" stroke="white"/>
<path d="M29.0994 4.20999L33.3286 0.972257L41.2792 9.01393L35.8521 13.1523L29.0994 4.20999Z" fill="#007CBE" stroke="white"/>
<path d="M17.8276 4.42206H29.4728C31.3173 6.80237 35.0228 11.731 35.0889 12.4031C35.155 13.0752 33.74 14.1953 33.0242 14.6714L27.6558 10.9749H23.4437C22.9812 10.9749 21.7644 9.18268 21.2138 8.28656H17.8276C18.2901 9.3619 16.1483 10.9189 15.0195 11.563V6.94239L17.8276 4.42206Z" fill="#007CBE" stroke="white"/>
<path d="M13.683 4.02209L9.43212 0.848525L0.810776 8.58561L6.30188 12.942L13.683 4.02209Z" fill="#007CBE" stroke="white"/>
<rect x="16.3179" y="15.5539" width="2.32529" height="5.48431" rx="1.16264" transform="rotate(43.9317 16.3179 15.5539)" fill="#007CBE" stroke="white"/>
<rect x="17.5796" y="18.879" width="2.32529" height="4.18845" rx="1.16264" transform="rotate(43.9317 17.5796 18.879)" fill="#007CBE" stroke="white"/>
<rect x="10.0425" y="12.7276" width="2.32529" height="3.14987" rx="1.16264" transform="rotate(43.9317 10.0425 12.7276)" fill="#007CBE" stroke="white"/>
<rect x="13.0913" y="14.224" width="2.32529" height="4.18845" rx="1.16264" transform="rotate(43.9317 13.0913 14.224)" fill="#007CBE" stroke="white"/>
</svg>
