<svg width="27" height="25" viewBox="0 0 27 25" fill="none" xmlns="http://www.w3.org/2000/svg">
<mask id="path-1-inside-1_1103_4353" fill="white">
<path fill-rule="evenodd" clip-rule="evenodd" d="M24.4475 12.5062L14.3374 23.88C13.9396 24.3276 13.2404 24.3276 12.8426 23.88L2.77174 12.5503C1.37269 11.2251 0.5 9.34984 0.5 7.27071C0.5 3.25521 3.75521 0 7.77071 0C10.1487 0 12.26 1.14158 13.5866 2.90661C14.9131 1.14158 17.0244 0 19.4024 0C23.4179 0 26.6731 3.25521 26.6731 7.27071C26.6731 8.9077 26.1321 10.4183 25.2192 11.6336H25.2232L25.1966 11.6634C24.9688 11.9635 24.7183 12.2452 24.4475 12.5062Z"/>
</mask>
<path fill-rule="evenodd" clip-rule="evenodd" d="M24.4475 12.5062L14.3374 23.88C13.9396 24.3276 13.2404 24.3276 12.8426 23.88L2.77174 12.5503C1.37269 11.2251 0.5 9.34984 0.5 7.27071C0.5 3.25521 3.75521 0 7.77071 0C10.1487 0 12.26 1.14158 13.5866 2.90661C14.9131 1.14158 17.0244 0 19.4024 0C23.4179 0 26.6731 3.25521 26.6731 7.27071C26.6731 8.9077 26.1321 10.4183 25.2192 11.6336H25.2232L25.1966 11.6634C24.9688 11.9635 24.7183 12.2452 24.4475 12.5062Z" fill="#007CBE"/>
<path d="M24.4475 12.5062L23.7535 11.7862L23.7257 11.813L23.7001 11.8419L24.4475 12.5062ZM14.3374 23.88L13.59 23.2157H13.59L14.3374 23.88ZM12.8426 23.88L13.59 23.2157H13.59L12.8426 23.88ZM2.77174 12.5503L3.51915 11.8859L3.49061 11.8538L3.45941 11.8243L2.77174 12.5503ZM13.5866 2.90661L12.7872 3.50742L13.5866 4.57104L14.386 3.50742L13.5866 2.90661ZM25.2192 11.6336L24.4197 11.0329L23.2172 12.6336H25.2192V11.6336ZM25.2232 11.6336L25.9706 12.2979L27.45 10.6336H25.2232V11.6336ZM25.1966 11.6634L24.4492 10.9991L24.4236 11.0279L24.4002 11.0587L25.1966 11.6634ZM23.7001 11.8419L13.59 23.2157L15.0848 24.5444L25.1949 13.1706L23.7001 11.8419ZM13.59 23.2157H13.59L12.0952 24.5444C12.8908 25.4394 14.2892 25.4394 15.0848 24.5444L13.59 23.2157ZM13.59 23.2157L3.51915 11.8859L2.02433 13.2146L12.0952 24.5444L13.59 23.2157ZM3.45941 11.8243C2.25144 10.6801 1.5 9.06397 1.5 7.27071H-0.5C-0.5 9.6357 0.493937 11.7702 2.08407 13.2763L3.45941 11.8243ZM1.5 7.27071C1.5 3.80749 4.30749 1 7.77071 1V-1C3.20293 -1 -0.5 2.70292 -0.5 7.27071H1.5ZM7.77071 1C9.82097 1 11.6414 1.9829 12.7872 3.50742L14.386 2.3058C12.8786 0.300273 10.4764 -1 7.77071 -1V1ZM14.386 3.50742C15.5318 1.9829 17.3521 1 19.4024 1V-1C16.6967 -1 14.2945 0.300273 12.7872 2.3058L14.386 3.50742ZM19.4024 1C22.8656 1 25.6731 3.80749 25.6731 7.27071H27.6731C27.6731 2.70292 23.9702 -1 19.4024 -1V1ZM25.6731 7.27071C25.6731 8.6837 25.207 9.98493 24.4197 11.0329L26.0187 12.2342C27.0573 10.8517 27.6731 9.13169 27.6731 7.27071H25.6731ZM25.2192 12.6336H25.2232V10.6336H25.2192V12.6336ZM24.4758 10.9692L24.4492 10.9991L25.9441 12.3278L25.9706 12.2979L24.4758 10.9692ZM24.4002 11.0587C24.2036 11.3176 23.9873 11.5609 23.7535 11.7862L25.1415 13.2262C25.4492 12.9296 25.7341 12.6093 25.9931 12.2682L24.4002 11.0587Z" fill="#007CBE" mask="url(#path-1-inside-1_1103_4353)"/>
</svg>
