<svg width="25" height="25" viewBox="0 0 25 25" fill="none" xmlns="http://www.w3.org/2000/svg">
<g clip-path="url(#clip0_1103_4429)">
<path d="M12.125 3.08931L1.4435 0.240814C1.37975 0.223939 1.31487 0.216064 1.25037 0.216064C1.0865 0.216064 0.925625 0.269314 0.792875 0.370939C0.608375 0.513064 0.5 0.732814 0.5 0.965689V16.5263L12.125 19.6036V3.08931ZM9.66125 15.3184C9.614 15.4834 9.46362 15.5907 9.30087 15.5907C9.26637 15.5907 9.23188 15.5858 9.19775 15.5764L3.77262 14.0266C3.5735 13.9696 3.458 13.7622 3.51462 13.5631C3.57162 13.3636 3.7805 13.2507 3.97812 13.3051L9.40325 14.8549C9.60238 14.9119 9.71788 15.1193 9.66125 15.3184ZM9.66125 12.6934C9.614 12.8584 9.46362 12.9657 9.30087 12.9657C9.26637 12.9657 9.23188 12.9608 9.19775 12.9514L3.77262 11.4012C3.5735 11.3442 3.458 11.1364 3.51462 10.9377C3.57162 10.7382 3.7805 10.6253 3.97812 10.6797L9.40325 12.2299C9.60238 12.2869 9.71788 12.4947 9.66125 12.6934ZM9.66125 10.0684C9.614 10.2334 9.46362 10.3407 9.30087 10.3407C9.26637 10.3407 9.23188 10.3358 9.19775 10.3264L3.77262 8.77619C3.5735 8.71919 3.458 8.51144 3.51462 8.31269C3.57162 8.11319 3.7805 7.99994 3.97812 8.05469L9.40325 9.60494C9.60238 9.66194 9.71788 9.86969 9.66125 10.0684ZM9.66125 7.44344C9.614 7.60844 9.46362 7.71569 9.30087 7.71569C9.26637 7.71569 9.23188 7.71081 9.19775 7.70144L3.77262 6.15119C3.5735 6.09419 3.458 5.88644 3.51462 5.68769C3.57162 5.48819 3.7805 5.37531 3.97812 5.42969L9.40325 6.97994C9.60238 7.03694 9.71788 7.24469 9.66125 7.44344Z" fill="#007CBE"/>
<path d="M24.2071 0.370939C24.0744 0.269314 23.9131 0.216064 23.7493 0.216064C23.6848 0.216064 23.6199 0.224314 23.5565 0.240814L12.875 3.08931V19.6036L24.5 16.5263V0.965689C24.5 0.732814 24.3916 0.513064 24.2071 0.370939ZM15.284 12.2157L20.7091 10.6654C20.9071 10.6111 21.1156 10.7236 21.1726 10.9234C21.2292 11.1222 21.1141 11.3299 20.9146 11.3869L15.4895 12.9372C15.455 12.9466 15.4205 12.9514 15.3864 12.9514C15.2232 12.9514 15.0733 12.8442 15.026 12.6792C14.9694 12.4804 15.0849 12.2727 15.284 12.2157ZM21.0282 14.0266L15.6031 15.5764C15.569 15.5858 15.5345 15.5907 15.5 15.5907C15.3369 15.5907 15.1869 15.4834 15.1396 15.3184C15.083 15.1193 15.1981 14.9119 15.3976 14.8549L20.8228 13.3051C21.0208 13.2507 21.2292 13.3632 21.2863 13.5631C21.3429 13.7622 21.2274 13.9696 21.0282 14.0266ZM21.0282 8.77619L15.6031 10.3264C15.569 10.3358 15.5345 10.3407 15.5 10.3407C15.3369 10.3407 15.1869 10.2334 15.1396 10.0684C15.083 9.86969 15.1981 9.66194 15.3976 9.60494L20.8228 8.05469C21.0208 7.99994 21.2292 8.11281 21.2863 8.31269C21.3429 8.51144 21.2274 8.71919 21.0282 8.77619ZM21.0282 6.15119L15.6031 7.70144C15.569 7.71081 15.5345 7.71569 15.5 7.71569C15.3369 7.71569 15.1869 7.60844 15.1396 7.44344C15.083 7.24469 15.1981 7.03694 15.3976 6.97994L20.8228 5.42969C21.0208 5.37531 21.2292 5.48781 21.2863 5.68769C21.3429 5.88644 21.2274 6.09419 21.0282 6.15119Z" fill="#007CBE"/>
<path d="M12.125 20.3794L0.5 17.3022V18.0263L12.125 21.1036V20.3794Z" fill="#007CBE"/>
<path d="M12.875 21.1036L24.5 18.0263V17.3022L12.875 20.3794V21.1036Z" fill="#007CBE"/>
<path d="M13.625 21.9784C13.625 22.5998 13.1214 23.1034 12.5 23.1034C11.8786 23.1034 11.375 22.5998 11.375 21.9784C11.375 21.8787 11.3923 21.7834 11.4163 21.6916L0.5 18.8022V19.7153C0.5 20.0551 0.728375 20.3524 1.0565 20.4402L10.7589 23.0273C11.0334 23.7226 11.7076 24.2157 12.5 24.2157C13.2924 24.2157 13.9666 23.7226 14.2411 23.0273L23.9435 20.4402C24.2716 20.3524 24.5 20.0551 24.5 19.7153V18.8022L13.5837 21.6919C13.6077 21.7838 13.625 21.8791 13.625 21.9784Z" fill="#007CBE"/>
</g>
<defs>
<clipPath id="clip0_1103_4429">
<rect width="24" height="24" fill="white" transform="translate(0.5 0.215698)"/>
</clipPath>
</defs>
</svg>
