<svg width="25" height="25" viewBox="0 0 25 25" fill="none" xmlns="http://www.w3.org/2000/svg">
<g clip-path="url(#clip0_1103_4414)">
<path d="M13.7685 19.2309C13.7685 16.0597 16.3393 13.4891 19.5103 13.4891C20.1778 13.4891 20.6097 13.5688 21.0624 13.7026C21.3672 13.8319 21.4839 13.5773 21.5157 13.4585C21.7231 12.6837 21.8394 11.8935 21.8394 11.0974C21.8394 11.0441 21.8097 4.267 21.8097 4.18329C21.8097 3.51494 21.4267 3.51651 21.2557 3.51738C20.0289 3.52321 18.7785 3.52376 17.463 3.14458C14.7301 2.3566 12.3004 0.215698 11.3767 0.215698C10.4821 0.215698 8.67805 2.35668 5.94502 3.14458C4.40388 3.58889 2.92597 3.50643 1.54336 3.44233C1.38089 3.43485 1.12228 3.39177 1.04022 3.95484C1.01951 4.09675 0.914062 11.0212 0.914062 11.0974C0.914062 17.8619 9.28293 24.2157 11.3766 24.2157C12.0465 24.2157 13.1259 23.6777 14.5787 22.5965C14.7723 22.4293 14.6686 22.3184 14.6113 22.2251C14.0772 21.3533 13.7685 20.3284 13.7685 19.2309Z" fill="#007CBE"/>
<path d="M19.5465 22.1586C19.3531 22.367 19.0079 22.3993 18.7792 22.2303L15.1431 19.5415C14.9146 19.3725 14.8674 19.0483 15.0384 18.8212L15.505 18.2019C15.6759 17.9747 16.0034 17.9266 16.2326 18.0948L18.5643 19.8058C18.7935 19.974 19.1392 19.9411 19.3325 19.7325L22.6235 16.2878C22.8169 16.0793 23.1453 16.0672 23.3535 16.2609L23.921 16.7892C24.1291 16.9829 24.1413 17.3119 23.9479 17.5204L19.5465 22.1586Z" fill="#007CBE"/>
</g>
<defs>
<clipPath id="clip0_1103_4414">
<rect width="24" height="24" fill="white" transform="translate(0.5 0.215698)"/>
</clipPath>
</defs>
</svg>
