<svg width="25" height="24" viewBox="0 0 25 24" fill="none" xmlns="http://www.w3.org/2000/svg">
<g clip-path="url(#clip0_1103_4382)">
<path d="M18.3893 2.36583C16.8514 0.838734 14.8153 0 12.6495 0C12.6299 0 12.61 9.375e-05 12.5904 0.0001875C10.4682 0.0151875 8.46112 0.848484 6.9389 2.34666C5.41636 3.8452 4.55161 5.83875 4.50408 7.96036C4.45411 10.1876 5.2875 12.2863 6.85059 13.8699C7.69767 14.728 8.18353 15.8769 8.18386 17.0222V20.6512H9.03286C9.17597 22.5216 10.7425 24 12.649 24C14.5555 24 16.122 22.5216 16.2651 20.6512H17.1141V17.0222C17.1144 15.8702 17.592 14.7296 18.4247 13.8927C19.9539 12.3556 20.796 10.3152 20.796 8.14706C20.796 5.96002 19.9414 3.90684 18.3893 2.36583ZM12.649 22.3256C11.6666 22.3256 10.8516 21.5965 10.7158 20.6512H14.5822C14.4464 21.5965 13.6314 22.3256 12.649 22.3256Z" fill="#007CBE"/>
<rect x="0.5" y="16.1074" width="24" height="1" fill="white"/>
<rect x="0.5" y="18.1074" width="24" height="1" fill="white"/>
</g>
<defs>
<clipPath id="clip0_1103_4382">
<rect width="24" height="24" fill="white" transform="translate(0.5)"/>
</clipPath>
</defs>
</svg>
