<svg width="25" height="24" viewBox="0 0 25 24" fill="none" xmlns="http://www.w3.org/2000/svg">
<g clip-path="url(#clip0_1103_4368)">
<path d="M12.5003 23.1429C18.6543 23.1429 23.6431 18.1541 23.6431 12C23.6431 5.846 18.6543 0.857178 12.5003 0.857178C6.34625 0.857178 1.35742 5.846 1.35742 12C1.35742 18.1541 6.34625 23.1429 12.5003 23.1429Z" fill="#007CBE" stroke="#007CBE" stroke-width="2" stroke-miterlimit="10"/>
<path d="M17.2798 15.7715C14.6441 19.2215 10.3584 19.2215 7.72266 15.7715" stroke="white" stroke-width="2" stroke-miterlimit="10" stroke-linecap="round"/>
<path d="M9.55697 9.66435C9.55697 10.1811 9.13798 10.6001 8.62126 10.6001C8.10455 10.6001 7.68555 10.1811 7.68555 9.66435C7.68555 9.14764 8.10455 8.72864 8.62126 8.72864C9.13798 8.72864 9.55697 9.14764 9.55697 9.66435Z" fill="white" stroke="white"/>
<path d="M17.3148 9.66435C17.3148 10.1811 16.8959 10.6001 16.3791 10.6001C15.8623 10.6001 15.4434 10.1811 15.4434 9.66435C15.4434 9.14757 15.8623 8.72864 16.3791 8.72864C16.8959 8.72864 17.3148 9.14757 17.3148 9.66435Z" fill="white" stroke="white"/>
</g>
<defs>
<clipPath id="clip0_1103_4368">
<rect width="24" height="24" fill="white" transform="translate(0.5)"/>
</clipPath>
</defs>
</svg>
